HIERARCHY
ROOT Hips
{
	OFFSET 0.000000 0.000000 0.000000
	CHANNELS 6 Xposition Yposition Zposition Zrotation Yrotation Xrotation 
	JOINT LHipJoint
	{
		OFFSET 0.000000 0.000000 0.000000
		CHANNELS 3 Zrotation Yrotation Xrotation
		JOINT LeftUpLeg
		{
			OFFSET 1.363060 -1.794630 0.839290
			CHANNELS 3 Zrotation Yrotation Xrotation
			JOINT LeftLeg
			{
				OFFSET 2.448110 -6.726130 0.000000
				CHANNELS 3 Zrotation Yrotation Xrotation
				JOINT LeftFoot
				{
					OFFSET 2.562200 -7.039590 0.000000
					CHANNELS 3 Zrotation Yrotation Xrotation
					JOINT LeftToeBase
					{
						OFFSET 0.157640 -0.433110 2.322550
						CHANNELS 3 Zrotation Yrotation Xrotation
						End Site
						{
							OFFSET 0.000000 0.000000 0.000000
						}
					}
				}
			}
		}
	}
	JOINT RHipJoint
	{
		OFFSET 0.000000 0.000000 0.000000
		CHANNELS 3 Zrotation Yrotation Xrotation
		JOINT RightUpLeg
		{
			OFFSET -1.305520 -1.794630 0.839290
			CHANNELS 3 Zrotation Yrotation Xrotation
			JOINT RightLeg
			{
				OFFSET -2.542530 -6.985550 0.000000
				CHANNELS 3 Zrotation Yrotation Xrotation
				JOINT RightFoot
				{
					OFFSET -2.568260 -7.056230 0.000000
					CHANNELS 3 Zrotation Yrotation Xrotation
					JOINT RightToeBase
					{
						OFFSET -0.164730 -0.452590 2.363150
						CHANNELS 3 Zrotation Yrotation Xrotation
						End Site
						{
							OFFSET 0.000000 0.000000 0.000000
						}
					}
				}
			}
		}
	}
	JOINT LowerBack
	{
		OFFSET 0.000000 0.000000 0.000000
		CHANNELS 3 Zrotation Yrotation Xrotation
		JOINT Spine
		{
			OFFSET 0.028270 2.035590 -0.193380
			CHANNELS 3 Zrotation Yrotation Xrotation
			JOINT Spine1
			{
				OFFSET 0.056720 2.048850 -0.042750
				CHANNELS 3 Zrotation Yrotation Xrotation
				JOINT Neck
				{
					OFFSET 0.000000 0.000000 0.000000
					CHANNELS 3 Zrotation Yrotation Xrotation
					JOINT Neck1
					{
						OFFSET -0.054170 1.746240 0.172020
						CHANNELS 3 Zrotation Yrotation Xrotation
						JOINT Head
						{
							OFFSET 0.104070 1.761360 -0.123970
							CHANNELS 3 Zrotation Yrotation Xrotation
							End Site
							{
								OFFSET 0.000000 0.000000 0.000000
							}
						}
					}
				}
				JOINT LeftShoulder
				{
					OFFSET 0.000000 0.000000 0.000000
					CHANNELS 3 Zrotation Yrotation Xrotation
					JOINT LeftArm
					{
						OFFSET 3.362410 1.200890 -0.311210
						CHANNELS 3 Zrotation Yrotation Xrotation
						JOINT LeftForeArm
						{
							OFFSET 4.983000 -0.000000 -0.000000
							CHANNELS 3 Zrotation Yrotation Xrotation
							JOINT LeftHand
							{
								OFFSET 3.483560 -0.000000 -0.000000
								CHANNELS 3 Zrotation Yrotation Xrotation
								JOINT LeftFingerBase
								{
									OFFSET 0.000000 0.000000 0.000000
									CHANNELS 3 Zrotation Yrotation Xrotation
									JOINT LeftHandIndex1
									{
										OFFSET 0.715260 -0.000000 -0.000000
										CHANNELS 3 Zrotation Yrotation Xrotation
										End Site
										{
											OFFSET 0.000000 0.000000 0.000000
										}
									}
								}
								JOINT LThumb
								{
									OFFSET 0.000000 0.000000 0.000000
									CHANNELS 3 Zrotation Yrotation Xrotation
									End Site
									{
										OFFSET 0.000000 0.000000 0.000000
									}
								}
							}
						}
					}
				}
				JOINT RightShoulder
				{
					OFFSET 0.000000 0.000000 0.000000
					CHANNELS 3 Zrotation Yrotation Xrotation
					JOINT RightArm
					{
						OFFSET -3.136600 1.374050 -0.404650
						CHANNELS 3 Zrotation Yrotation Xrotation
						JOINT RightForeArm
						{
							OFFSET -5.241900 -0.000000 -0.000000
							CHANNELS 3 Zrotation Yrotation Xrotation
							JOINT RightHand
							{
								OFFSET -3.444170 -0.000000 -0.000000
								CHANNELS 3 Zrotation Yrotation Xrotation
								JOINT RightFingerBase
								{
									OFFSET 0.000000 0.000000 0.000000
									CHANNELS 3 Zrotation Yrotation Xrotation
									JOINT RightHandIndex1
									{
										OFFSET -0.622530 -0.000000 -0.000000
										CHANNELS 3 Zrotation Yrotation Xrotation
										End Site
										{
											OFFSET 0.000000 0.000000 0.000000
										}
									}
								}
								JOINT RThumb
								{
									OFFSET 0.000000 0.000000 0.000000
									CHANNELS 3 Zrotation Yrotation Xrotation
									End Site
									{
										OFFSET 0.000000 0.000000 0.000000
									}
								}
							}
						}
					}
				}
			}
		}
	}
}
MOTION
Frames: 5
Frame Time: 0.008333
16.958420 16.812412 1.654739 155.231808 -86.005695 -102.937933 -8.404881 -0.609217 3.742587 -8.464298 -11.644715 -59.119046 -2.323360 -1.955290 13.014565 4.215214 15.712195 -12.999800 -0.264600 0.000000 -44.621200 8.164481 0.764493 5.351176 -1.378292 9.602085 -62.159470 2.113486 1.117724 15.080582 -2.799788 -7.236821 -12.731452 -0.266500 -0.000000 -67.079600 -0.075084 -2.540581 -4.952714 -0.324764 -2.694149 -3.597622 -3.997329 -2.889976 2.224629 8.725592 -16.657841 -13.368502 -0.486553 0.085094 -1.977654 0.000000 0.000000 0.000000 -2.531397 16.644413 2.986406 -57.953184 44.302523 6.209876 -3.199252 -20.457405 0.001271 -1.164705 -0.830453 0.007068 -0.140116 -0.053970 0.000000 0.000000 0.000000 0.000000 0.000000 0.000000 0.000000 7.821754 -15.696407 3.231756 54.608553 -41.648054 -20.483235 3.039434 11.579619 0.022259 -3.405149 8.384279 -0.267452 0.196892 -0.114842 -0.000000 0.000000 0.000000 0.000000 0.000000 0.000000 0.000000 
16.938917 16.718614 1.651123 151.200792 -86.086113 -97.530274 -8.287793 -0.554318 3.951008 -8.305577 -12.444866 -61.922409 -2.345319 -1.754374 15.370655 4.349793 15.549881 -14.068064 -0.538500 0.000000 -44.414501 8.194284 0.799397 5.567511 -1.949462 9.704204 -65.140355 2.054165 0.811267 17.717120 -2.902302 -7.104140 -13.838708 -0.102500 -0.000000 -66.588701 -0.042484 -2.588442 -5.281182 -0.340457 -2.755936 -3.694642 -4.064816 -2.955068 2.185784 8.890416 -16.733926 -13.551962 -0.525045 0.085974 -2.051778 0.000000 0.000000 0.000000 -2.792669 16.339513 3.062259 -58.237076 43.586139 6.262748 -3.131854 -21.099969 0.001943 -1.009180 -1.015756 0.007578 -0.136999 -0.047774 0.000000 0.000000 0.000000 0.000000 0.000000 0.000000 0.000000 8.211066 -15.744068 3.339152 55.357909 -41.083807 -19.698016 2.976074 12.545291 0.020944 -3.455169 8.176456 -0.264151 0.192736 -0.113434 -0.000000 0.000000 0.000000 0.000000 0.000000 0.000000 0.000000 
16.917911 16.613333 1.647731 146.794191 -86.140867 -91.705244 -8.175460 -0.482528 4.183572 -8.131647 -13.278105 -64.889446 -2.360827 -1.521258 17.911721 4.487820 15.362157 -15.197393 -0.825899 0.000000 -44.074399 8.237417 0.842381 5.801979 -2.565132 9.764283 -68.282876 1.986131 0.468941 20.570484 -3.003416 -6.945794 -15.027094 0.073900 0.000001 -65.937901 -0.009635 -2.636469 -5.662887 -0.355507 -2.819406 -3.804245 -4.129467 -3.022313 2.152968 9.051792 -16.823066 -13.735477 -0.563751 0.086798 -2.125704 0.000000 0.000000 0.000000 -3.013079 16.049170 3.138518 -58.525769 42.800782 6.337132 -3.062459 -21.706393 0.002681 -0.813786 -1.232022 0.007289 -0.134217 -0.041038 -0.000000 0.000000 0.000000 0.000000 0.000000 0.000000 0.000000 8.603132 -15.808837 3.438989 56.058179 -40.477047 -18.854031 2.912636 13.507788 0.019669 -3.514428 7.977099 -0.261649 0.188751 -0.112465 -0.000000 0.000000 0.000000 0.000000 0.000000 0.000000 0.000000 
16.895136 16.495968 1.644655 142.127629 -86.164307 -85.587578 -8.072858 -0.396711 4.439684 -7.933712 -14.140076 -68.008575 -2.364997 -1.254447 20.634487 4.629730 15.157421 -16.386186 -1.126201 -0.000000 -43.567000 8.291578 0.894928 6.053707 -3.223762 9.781502 -71.568742 1.906694 0.091607 23.631881 -3.103700 -6.773195 -16.286959 0.260401 -0.000000 -65.105100 0.023077 -2.683543 -6.098473 -0.369610 -2.883548 -3.926484 -4.190886 -3.090704 2.126475 9.206930 -16.921697 -13.916485 -0.602755 0.087495 -2.198363 0.000000 0.000000 0.000000 -3.194877 15.774283 3.213786 -58.818016 41.958354 6.417017 -2.992241 -22.276004 0.003445 -0.582161 -1.472725 0.005899 -0.131807 -0.033838 0.000000 0.000000 0.000000 0.000000 0.000000 0.000000 0.000000 8.993095 -15.887384 3.530560 56.707924 -39.831886 -17.990162 2.849850 14.452725 0.018456 -3.580579 7.793291 -0.260048 0.184985 -0.112051 -0.000000 0.000000 0.000000 0.000000 0.000000 0.000000 0.000000 
16.871413 16.366881 1.642179 137.321393 -86.158459 -79.328960 -7.986257 -0.305941 4.706247 -7.708286 -15.008705 -71.233184 -2.353246 -0.951734 23.535944 4.772127 14.935628 -17.632575 -1.439800 -0.000000 -42.869600 8.350811 0.958761 6.310285 -3.908251 9.755338 -74.935572 1.813818 -0.317724 26.878271 -3.203721 -6.601148 -17.605796 0.455600 0.000000 -64.077300 0.061964 -2.728359 -6.562336 -0.382704 -2.947065 -4.057657 -4.254620 -3.158765 2.095889 9.355838 -17.006048 -14.086487 -0.648064 0.087310 -2.267242 0.000000 0.000000 0.000000 -3.367234 15.475855 3.285113 -59.111067 41.126875 6.454687 -2.921321 -22.860570 0.004183 -0.322599 -1.725968 0.003114 -0.129665 -0.026375 0.000000 0.000000 0.000000 0.000000 0.000000 0.000000 0.000000 9.395928 -15.952445 3.614983 57.320290 -39.191682 -17.148656 2.787465 15.417290 0.017239 -3.653620 7.605688 -0.258546 0.181434 -0.112132 -0.000000 0.000000 0.000000 0.000000 0.000000 0.000000 0.000000 
